<?xml version="1.0" encoding="UTF-8" standalone="no"?>
<svg
   viewBox="0 0 2267.7165 2267.7166"
   width="600mm"
   height="600mm"
   version="1.1"
   id="svg55"
   sodipodi:docname="MazeTile540-7.svg"
   inkscape:version="1.2.1 (9c6d41e410, 2022-07-14)"
   xmlns:inkscape="http://www.inkscape.org/namespaces/inkscape"
   xmlns:sodipodi="http://sodipodi.sourceforge.net/DTD/sodipodi-0.dtd"
   xmlns="http://www.w3.org/2000/svg"
   xmlns:svg="http://www.w3.org/2000/svg">
  <sodipodi:namedview
     id="namedview57"
     pagecolor="#ffffff"
     bordercolor="#000000"
     borderopacity="0.25"
     inkscape:showpageshadow="2"
     inkscape:pageopacity="0.0"
     inkscape:pagecheckerboard="0"
     inkscape:deskcolor="#d1d1d1"
     showgrid="false"
     inkscape:zoom="0.52095062"
     inkscape:cx="1164.2178"
     inkscape:cy="1699.7772"
     inkscape:window-width="1920"
     inkscape:window-height="991"
     inkscape:window-x="1071"
     inkscape:window-y="-9"
     inkscape:window-maximized="1"
     inkscape:current-layer="g53"
     inkscape:document-units="mm" />
  <desc
     id="desc2">MazeTile540-7.DXF - scale = 1.000000, origin = (0.000000, 0.000000), method = manual</desc>
  <defs
     id="defs17">
    <marker
       id="DistanceX"
       orient="auto"
       refX="0"
       refY="0"
       style="overflow:visible">
      <path
         d="M 3,-3 -3,3 M 0,-5 V 5"
         style="stroke:#000000;stroke-width:0.5"
         id="path4" />
    </marker>
    <pattern
       id="Hatch"
       patternUnits="userSpaceOnUse"
       width="8"
       height="8"
       x="0"
       y="0">
      <path
         d="M8 4 l-4,4"
         stroke="#000000"
         stroke-width="0.25"
         linecap="square"
         id="path7" />
      <path
         d="M6 2 l-4,4"
         stroke="#000000"
         stroke-width="0.25"
         linecap="square"
         id="path9" />
      <path
         d="M4 0 l-4,4"
         stroke="#000000"
         stroke-width="0.25"
         linecap="square"
         id="path11" />
    </pattern>
    <symbol
       id="*Model_Space" />
    <symbol
       id="*Paper_Space" />
    <symbol
       id="*Paper_Space0" />
  </defs>
  <g
     inkscape:groupmode="layer"
     inkscape:label="0"
     id="g53">
    <path
       d="m 173.85827,758.15292 a 13.228347,13.228347 0 0 0 -26.45669,0 13.228346,13.228346 0 0 0 26.45669,0 z"
       style="fill:none;stroke:#000000;stroke-width:3.571;stroke-linecap:round"
       id="path19" />
    <path
       d="m 1534.4882,758.15292 a 13.228346,13.228346 0 0 0 -26.4567,0 13.228347,13.228347 0 0 0 26.4567,0 z"
       style="fill:none;stroke:#000000;stroke-width:3.571;stroke-linecap:round"
       id="path21" />
    <path
       d="m 1534.4882,1438.4679 a 13.228346,13.228346 0 0 0 -26.4567,0 13.228347,13.228347 0 0 0 26.4567,0 z"
       style="fill:none;stroke:#000000;stroke-width:3.571;stroke-linecap:round"
       id="path23" />
    <path
       d="m 1534.4882,2118.7828 a 13.228346,13.228346 0 0 0 -26.4567,0 13.228347,13.228347 0 0 0 26.4567,0 z"
       style="fill:none;stroke:#000000;stroke-width:3.571;stroke-linecap:round"
       id="path25" />
    <path
       d="m 173.85827,2118.7828 a 13.228347,13.228347 0 0 0 -26.45669,0 13.228346,13.228346 0 0 0 26.45669,0 z"
       style="fill:none;stroke:#000000;stroke-width:3.571;stroke-linecap:round"
       id="path27" />
    <path
       d="m 854.17323,2118.7828 a 13.228346,13.228346 0 0 0 -26.45669,0 13.228346,13.228346 0 0 0 26.45669,0 z"
       style="fill:none;stroke:#000000;stroke-width:3.571;stroke-linecap:round"
       id="path29" />
    <path
       d="m 854.17323,1438.4679 a 13.228346,13.228346 0 0 0 -26.45669,0 13.228346,13.228346 0 0 0 26.45669,0 z"
       style="fill:none;stroke:#000000;stroke-width:3.571;stroke-linecap:round"
       id="path31" />
    <path
       d="m 854.17323,758.15292 a 13.228346,13.228346 0 0 0 -26.45669,0 13.228346,13.228346 0 0 0 26.45669,0 z"
       style="fill:none;stroke:#000000;stroke-width:3.571;stroke-linecap:round"
       id="path33" />
    <path
       d="m 173.85827,1438.4679 a 13.228347,13.228347 0 0 0 -26.45669,0 13.228346,13.228346 0 0 0 26.45669,0 z"
       style="fill:none;stroke:#000000;stroke-width:3.571;stroke-linecap:round"
       id="path35" />
    <path
       style="fill:none;stroke:#000000;stroke-width:3.571;stroke-linecap:round"
       d="M 2154.3283,125.08181 H 113.38827"
       id="path37" />
    <path
       style="fill:none;stroke:#000000;stroke-width:3.571;stroke-linecap:round"
       d="M 2154.3283,2166.0248 V 125.08181"
       id="path39" />
    <path
       style="fill:none;stroke:#000000;stroke-width:3.571;stroke-linecap:round"
       d="M 113.38827,2166.0248 H 2154.3283"
       id="path41" />
    <path
       style="fill:none;stroke:#000000;stroke-width:3.571;stroke-linecap:round"
       d="M 113.38827,125.08181 V 2166.0248"
       id="path43" />
    <text
       x="-1020.4724"
       y="2146.8457"
       style="font-size:18.269px;line-height:125%;font-family:Arial;text-anchor:start;fill:#000000"
       id="text47"><tspan
         sodipodi:role="line"
         dx="0"
         dy="18.268801"
         id="tspan45"
         x="-1020.4724"
         y="2146.8457" /></text>
    <text
       x="-1020.4724"
       y="2174.2488"
       style="font-size:18.269px;line-height:125%;font-family:Arial;text-anchor:start;fill:#000000"
       id="text51"><tspan
         sodipodi:role="line"
         dx="0"
         dy="18.268801"
         id="tspan49"
         x="-1020.4724"
         y="2174.2488" /></text>
  </g>
</svg>
